<?xml version="1.0" encoding="UTF-8"?>
<svg width="20px" height="220px" viewBox="0 0 20 220" version="1.1" xmlns="http://www.w3.org/2000/svg" xmlns:xlink="http://www.w3.org/1999/xlink">
    <!-- Generator: Sketch 52.5 (67469) - http://www.bohemiancoding.com/sketch -->
    <title>brush</title>
    <desc>Created with Sketch.</desc>
    <g id="Page-1" stroke="none" stroke-width="1" fill="none" fill-rule="evenodd">
        <g id="Edit" transform="translate(-6.000000, -441.000000)">
            <g id="brush" transform="translate(6.000000, 441.000000)">
                <path d="M2,20 L6,20 L6,220 L2,220 L2,20 Z M8,20 L12,20 L12,220 L8,220 L8,20 Z M14,20 L18,20 L18,220 L14,220 L14,20 Z M8,2 L12,2 L12,8 L8,8 L8,2 Z" id="brush-color" fill="#E3BFCF"></path>
                <path d="M0,20 L2,20 L2,220 L0,220 L0,20 Z M2,14 L4,14 L4,20 L2,20 L2,14 Z M16,14 L18,14 L18,20 L16,20 L16,14 Z M4,8 L6,8 L6,14 L4,14 L4,8 Z M14,8 L16,8 L16,14 L14,14 L14,8 Z M12,2 L14,2 L14,8 L12,8 L12,2 Z M6,2 L8,2 L8,8 L6,8 L6,2 Z M8,0 L12,0 L12,2 L8,2 L8,0 Z M18,20 L20,20 L20,220 L18,220 L18,20 Z" id="brush-wrap" fill="#4F4759"></path>
            </g>
        </g>
    </g>
</svg>