<?xml version="1.0" encoding="UTF-8"?>
<svg width="20px" height="520px" viewBox="0 0 20 520" version="1.1" 
    xmlns="http://www.w3.org/2000/svg" 
    xmlns:xlink="http://www.w3.org/1999/xlink">
    <path d="M2,20 L6,20 L6,520 L2,520 L2,20 Z M8,20 L12,20 L12,520 L8,520 L8,20 Z M14,20 L18,20 L18,520 L14,520 L14,20 Z M8,2 L12,2 L12,8 L8,8 L8,2 Z" id="brush-color"></path>
    <path d="M0,20 L2,20 L2,520 L0,520 L0,20 Z M2,14 L4,14 L4,20 L2,20 L2,14 Z M16,14 L18,14 L18,20 L16,20 L16,14 Z M4,8 L6,8 L6,14 L4,14 L4,8 Z M14,8 L16,8 L16,14 L14,14 L14,8 Z M12,2 L14,2 L14,8 L12,8 L12,2 Z M6,2 L8,2 L8,8 L6,8 L6,2 Z M8,0 L12,0 L12,2 L8,2 L8,0 Z M18,20 L20,20 L20,520 L18,520 L18,20 Z" id="brush-wrap" fill="#000000"></path>
</svg>