<?xml version="1.0" encoding="UTF-8"?>
<svg width="30px" height="29px" viewBox="0 0 30 29" version="1.1" xmlns="http://www.w3.org/2000/svg" xmlns:xlink="http://www.w3.org/1999/xlink">
    <!-- Generator: Sketch 52.5 (67469) - http://www.bohemiancoding.com/sketch -->
    <title>export</title>
    <desc>Created with Sketch.</desc>
    <g id="Page-1" stroke="none" stroke-width="1" fill="none" fill-rule="evenodd">
        <g id="Sidebar" transform="translate(-13.000000, -233.000000)" fill="#FFFFFF">
            <g id="menu" transform="translate(0.000000, 102.000000)">
                <path d="M21,131 L28,131 L28,138 L31,138 L31,134 L31,131 L35,131 L35,134 L39,134 L39,138 L35,138 L35,142 L21,142 L21,138 L21,135 L17,135 L17,156 L21,156 L21,145 L25,145 L31,145 L35,145 L35,156 L39,156 L39,138 L43,138 L43,160 L39,160 L17,160 L13,160 L13,131 L17,131 L21,131 Z M31,149 L25,149 L25,152 L31,152 L31,149 Z" id="export"></path>
            </g>
        </g>
    </g>
</svg>