<?xml version="1.0" encoding="UTF-8"?>
<svg width="28px" height="28px" viewBox="0 0 28 28" version="1.1" 
    xmlns="http://www.w3.org/2000/svg" 
    xmlns:xlink="http://www.w3.org/1999/xlink">
    <path d="M20,6 L22,6 L22,10 L20,10 L20,8 L18,8 L18,6 L16,6 L16,4 L20,4 L20,6 Z M12,2 L16,2 L16,4 L12,4 L10,4 L10,2 L12,2 Z M10,18 L8,18 L8,16 L24,16 L24,18 L22,18 L22,20 L20,20 L20,22 L18,22 L18,24 L14,24 L14,22 L12,22 L12,20 L10,20 L10,18 Z M2,16 L6,16 L6,18 L0,18 L0,16 L0,12 L2,12 L2,16 Z M2,10 L4,10 L4,12 L2,12 L2,10 Z M4,8 L6,8 L6,10 L4,10 L4,8 Z M6,6 L8,6 L8,8 L6,8 L6,6 Z M8,4 L10,4 L10,6 L8,6 L8,4 Z M22,2 L24,2 L24,4 L22,4 L22,2 Z M22,10 L24,10 L24,12 L22,12 L22,10 Z M24,12 L26,12 L26,14 L24,14 L24,12 Z M24,18 L26,18 L26,20 L24,20 L24,18 Z M22,20 L24,20 L24,22 L22,22 L22,20 Z M20,22 L22,22 L22,24 L20,24 L20,22 Z M18,24 L20,24 L20,26 L18,26 L18,24 Z M12,24 L14,24 L14,26 L12,26 L12,24 Z M10,22 L12,22 L12,24 L10,24 L10,22 Z M8,20 L10,20 L10,22 L8,22 L8,20 Z M6,18 L8,18 L8,20 L6,20 L6,18 Z M14,26 L18,26 L18,28 L14,28 L14,26 Z M26,14 L28,14 L28,18 L26,18 L26,14 Z M24,4 L26,4 L26,10 L24,10 L24,4 Z M16,0 L22,0 L22,2 L16,2 L16,0 Z" id="fill"></path>
</svg>