<?xml version="1.0" encoding="UTF-8"?>
<svg width="28px" height="28px" viewBox="0 0 28 28" version="1.1" 
    xmlns="http://www.w3.org/2000/svg" 
    xmlns:xlink="http://www.w3.org/1999/xlink">
    <path d="M12,18 L10,18 L10,10 L12,10 L16,10 L18,10 L18,18 L16,18 L12,18 Z M12,16 L16,16 L16,12 L12,12 L12,16 Z M18,6 L18,8 L10,8 L10,6 L10,2 L12,2 L12,6 L16,6 L16,2 L18,2 L18,6 Z M6,22 L2,22 L2,20 L8,20 L8,22 L8,26 L6,26 L6,22 Z M22,22 L22,26 L20,26 L20,20 L22,20 L26,20 L26,22 L22,22 Z M22,6 L26,6 L26,8 L20,8 L20,6 L20,2 L22,2 L22,6 Z M6,6 L6,2 L8,2 L8,8 L6,8 L2,8 L2,6 L6,6 Z M10,22 L10,20 L18,20 L18,22 L18,26 L16,26 L16,22 L12,22 L12,26 L10,26 L10,22 Z M22,18 L20,18 L20,10 L22,10 L26,10 L26,12 L22,12 L22,16 L26,16 L26,18 L22,18 Z M6,18 L2,18 L2,16 L6,16 L6,12 L2,12 L2,10 L6,10 L8,10 L8,18 L6,18 Z M10,26 L10,28 L8,28 L8,26 L10,26 Z M20,26 L20,28 L18,28 L18,26 L20,26 Z M2,18 L2,20 L2.22044605e-16,20 L0,18 L2,18 Z M28,18 L28,20 L26,20 L26,18 L28,18 Z M2,8 L2,10 L2.22044605e-16,10 L0,8 L2,8 Z M28,8 L28,10 L26,10 L26,8 L28,8 Z M10,-6.123234e-17 L10,2 L8,2 L8,6.123234e-17 L10,-6.123234e-17 Z M20,-6.123234e-17 L20,2 L18,2 L18,6.123234e-17 L20,-6.123234e-17 Z" id="grid"></path>
</svg>