<?xml version="1.0" encoding="UTF-8"?>
<svg width="28px" height="28px" viewBox="0 0 28 28" version="1.1" xmlns="http://www.w3.org/2000/svg" xmlns:xlink="http://www.w3.org/1999/xlink">
    <!-- Generator: Sketch 52.5 (67469) - http://www.bohemiancoding.com/sketch -->
    <title>grid</title>
    <desc>Created with Sketch.</desc>
    <g id="Page-1" stroke="none" stroke-width="1" fill="none" fill-rule="evenodd">
        <g id="Edit" transform="translate(-177.000000, -16.000000)" fill="#D46791">
            <g id="header" transform="translate(-1.000000, -1.000000)">
                <g id="tools" transform="translate(62.000000, 7.000000)">
                    <path d="M128,28 L126,28 L126,20 L128,20 L132,20 L134,20 L134,28 L132,28 L128,28 Z M128,26 L132,26 L132,22 L128,22 L128,26 Z M134,16 L134,18 L126,18 L126,16 L126,12 L128,12 L128,16 L132,16 L132,12 L134,12 L134,16 Z M122,32 L118,32 L118,30 L124,30 L124,32 L124,36 L122,36 L122,32 Z M138,32 L138,36 L136,36 L136,30 L138,30 L142,30 L142,32 L138,32 Z M138,16 L142,16 L142,18 L136,18 L136,16 L136,12 L138,12 L138,16 Z M122,16 L122,12 L124,12 L124,18 L122,18 L118,18 L118,16 L122,16 Z M126,32 L126,30 L134,30 L134,32 L134,36 L132,36 L132,32 L128,32 L128,36 L126,36 L126,32 Z M138,28 L136,28 L136,20 L138,20 L142,20 L142,22 L138,22 L138,26 L142,26 L142,28 L138,28 Z M122,28 L118,28 L118,26 L122,26 L122,22 L118,22 L118,20 L122,20 L124,20 L124,28 L122,28 Z M126,36 L126,38 L124,38 L124,36 L126,36 Z M136,36 L136,38 L134,38 L134,36 L136,36 Z M118,28 L118,30 L116,30 L116,28 L118,28 Z M144,28 L144,30 L142,30 L142,28 L144,28 Z M118,18 L118,20 L116,20 L116,18 L118,18 Z M144,18 L144,20 L142,20 L142,18 L144,18 Z M126,10 L126,12 L124,12 L124,10 L126,10 Z M136,10 L136,12 L134,12 L134,10 L136,10 Z" id="grid"></path>
                </g>
            </g>
        </g>
    </g>
</svg>