<?xml version="1.0" encoding="UTF-8"?>
<svg width="25px" height="26px" viewBox="0 0 25 26" version="1.1" 
    xmlns="http://www.w3.org/2000/svg" 
    xmlns:xlink="http://www.w3.org/1999/xlink">
    <path d="M23,9 L21,9 L19,9 L19,6 L18,6 L16,6 L16,2 L16,2.7554553e-16 L25,-2.7554553e-16 L25,2 L25,9 L23,9 Z M23,7 L23,2 L18,2 L18,4 L21,4 L21,6 L21,7 L23,7 Z M9,2 L9,4 L9,6 L6,6 L6,7 L6,9 L2,9 L0,9 L0,0 L2,0 L9,0 L9,2 Z M7,2 L2,2 L2,7 L4,7 L4,4 L6,4 L7,4 L7,2 Z M16,24 L16,22 L16,20 L19,20 L19,19 L19,17 L23,17 L25,17 L25,26 L23,26 L16,26 L16,24 Z M18,24 L23,24 L23,19 L21,19 L21,22 L19,22 L18,22 L18,24 Z M2,17 L4,17 L6,17 L6,20 L7,20 L9,20 L9,24 L9,26 L8.8817842e-16,26 L5.2078438e-16,24 L-7.65094759e-16,17 L2,17 Z M2,19 L2,24 L7,24 L7,22 L4,22 L4,20 L4,19 L2,19 Z" id="move-copy"></path>
</svg>