<?xml version="1.0" encoding="UTF-8"?>
<svg width="28px" height="28px" viewBox="0 0 28 28" version="1.1" xmlns="http://www.w3.org/2000/svg" xmlns:xlink="http://www.w3.org/1999/xlink">
    <!-- Generator: Sketch 52.5 (67469) - http://www.bohemiancoding.com/sketch -->
    <title>palette</title>
    <desc>Created with Sketch.</desc>
    <g id="Page-1" stroke="none" stroke-width="1" fill="none" fill-rule="evenodd">
        <g id="Edit" transform="translate(-74.000000, -16.000000)" fill="#D46791">
            <g id="header" transform="translate(-1.000000, -1.000000)">
                <g id="tools" transform="translate(62.000000, 7.000000)">
                    <path d="M13,20 L15,20 L15,32 L13,32 L13,20 Z M39,18 L41,18 L41,30 L39,30 L39,18 Z M37,14 L39,14 L39,18 L37,18 L37,14 Z M33,12 L37,12 L37,14 L33,14 L33,12 Z M19,12 L23,12 L23,14 L19,14 L19,12 Z M31,28 L35,28 L35,30 L31,30 L31,28 Z M35,30 L39,30 L39,32 L35,32 L35,30 Z M27,34 L29,34 L29,36 L27,36 L27,34 Z M17,14 L19,14 L19,16 L17,16 L17,14 Z M15,32 L17,32 L17,34 L15,34 L15,32 Z M17,34 L19,34 L19,36 L17,36 L17,34 Z M20,30 L24,30 L24,34 L20,34 L20,30 Z M18,24 L22,24 L22,28 L18,28 L18,24 Z M20,18 L24,18 L24,22 L20,22 L20,18 Z M25,14 L30,14 L30,18 L25,18 L25,14 Z M32,16 L36,16 L36,20 L32,20 L32,16 Z M19,36 L27,36 L27,38 L19,38 L19,36 Z M15,16 L17,16 L17,20 L15,20 L15,16 Z M29,30 L31,30 L31,34 L29,34 L29,30 Z M23,10 L33,10 L33,12 L23,12 L23,10 Z" id="palette"></path>
                </g>
            </g>
        </g>
    </g>
</svg>