<?xml version="1.0" encoding="UTF-8"?>
<svg width="28px" height="28px" viewBox="0 0 28 28" version="1.1" 
    xmlns="http://www.w3.org/2000/svg" 
    xmlns:xlink="http://www.w3.org/1999/xlink">
    <path d="M0,10 L2,10 L2,22 L0,22 L0,10 Z M26,8 L28,8 L28,20 L26,20 L26,8 Z M24,4 L26,4 L26,8 L24,8 L24,4 Z M20,2 L24,2 L24,4 L20,4 L20,2 Z M6,2 L10,2 L10,4 L6,4 L6,2 Z M18,18 L22,18 L22,20 L18,20 L18,18 Z M22,20 L26,20 L26,22 L22,22 L22,20 Z M14,24 L16,24 L16,26 L14,26 L14,24 Z M4,4 L6,4 L6,6 L4,6 L4,4 Z M2,22 L4,22 L4,24 L2,24 L2,22 Z M4,24 L6,24 L6,26 L4,26 L4,24 Z M7,20 L11,20 L11,24 L7,24 L7,20 Z M5,14 L9,14 L9,18 L5,18 L5,14 Z M7,8 L11,8 L11,12 L7,12 L7,8 Z M12,4 L17,4 L17,8 L12,8 L12,4 Z M19,6 L23,6 L23,10 L19,10 L19,6 Z M6,26 L14,26 L14,28 L6,28 L6,26 Z M2,6 L4,6 L4,10 L2,10 L2,6 Z M16,20 L18,20 L18,24 L16,24 L16,20 Z M10,0 L20,0 L20,2 L10,2 L10,0 Z" id="palette-copy"></path>
</svg>