<?xml version="1.0" encoding="UTF-8"?>
<svg width="120px" height="40px" viewBox="0 0 120 40" version="1.1" 
    xmlns="http://www.w3.org/2000/svg" 
    xmlns:xlink="http://www.w3.org/1999/xlink">
    <rect id="dot" fill="#D46791" x="0" y="32" width="8" height="8"></rect>
    <path d="M0,8 L24,8 L24,32 L0,32 L0,8 Z M8,16 L8,24 L16,24 L16,16 L8,16 Z" id="p" fill="#4F4759"></path>
    <path d="M40,8 L40,24 L48,24 L48,8 L56,8 L56,32 L32,32 L32,8 L40,8 Z" id="u" fill="#4F4759"></path>
    <path d="M80,16 L80,24 L80,32 L64,32 L64,24 L72,24 L72,8 L80,8 L88,8 L88,16 L80,16 Z" id="s" fill="#4F4759"></path>
    <path d="M104,8 L112,8 L120,8 L120,32 L112,32 L112,16 L104,16 L104,32 L96,32 L96,8 L104,8 Z" id="h" fill="#4F4759"></path>
    <rect id="dot" fill="#D46791" x="96" y="0" width="8" height="8"></rect>
</svg>