<?xml version="1.0" encoding="UTF-8"?>
<svg width="27px" height="27px" viewBox="0 0 27 27" version="1.1" 
    xmlns="http://www.w3.org/2000/svg" 
    xmlns:xlink="http://www.w3.org/1999/xlink">
    <path d="M15,6 L15,0 L17,0 L17,2 L19,2 L19,4 L17,4 L17,8 L15,8 L4,8 L4,6 L15,6 Z M17,22 L17,24 L15,24 L15,18 L4,18 L4,16 L17,16 L17,18 L17,20 L19,20 L19,22 L17,22 Z M4,25 L2,25 L2,23 L0,23 L0,10 L2,10 L2,18 L4,18 L4,20 L8,20 L8,27 L4,27 L4,25 Z M19,18 L21,18 L21,20 L19,20 L19,18 Z M21,16 L23,16 L23,18 L21,18 L21,16 Z M23,14 L25,14 L25,16 L23,16 L23,14 Z M25,10 L27,10 L27,14 L25,14 L25,10 Z M23,8 L25,8 L25,10 L23,10 L23,8 Z M21,6 L23,6 L23,8 L21,8 L21,6 Z M19,4 L21,4 L21,6 L19,6 L19,4 Z M2,8 L4,8 L4,10 L2,10 L2,8 Z" id="redo"></path>
</svg>