<?xml version="1.0" encoding="UTF-8"?>
<svg width="27px" height="27px" viewBox="0 0 27 27" version="1.1" 
    xmlns="http://www.w3.org/2000/svg" 
    xmlns:xlink="http://www.w3.org/1999/xlink">
    <path d="M12,8 L10,8 L10,4 L8,4 L8,2 L10,2 L10,0 L12,0 L12,6 L23,6 L23,8 L12,8 Z M12,18 L12,24 L10,24 L10,22 L8,22 L8,20 L10,20 L10,16 L12,16 L23,16 L23,18 L12,18 Z M23,20 L23,18 L25,18 L25,10 L27,10 L27,23 L25,23 L25,25 L23,25 L23,27 L19,27 L19,20 L23,20 Z M6,18 L8,18 L8,20 L6,20 L6,18 Z M23,8 L25,8 L25,10 L23,10 L23,8 Z M4,16 L6,16 L6,18 L4,18 L4,16 Z M2,14 L4,14 L4,16 L2,16 L2,14 Z M2,8 L4,8 L4,10 L2,10 L2,8 Z M4,6 L6,6 L6,8 L4,8 L4,6 Z M6,4 L8,4 L8,6 L6,6 L6,4 Z M0,10 L2,10 L2,14 L0,14 L0,10 Z" id="undo"></path>
</svg>